<?xml version="1.0" encoding="UTF-8" standalone="no"?>
<!-- Created with Inkscape (http://www.inkscape.org/) -->

<svg
   width="14in"
   height="8.5in"
   viewBox="0 0 355.6 215.9"
   version="1.1"
   id="svg5"
   inkscape:version="1.2.2 (b0a8486541, 2022-12-01)"
   sodipodi:docname="pedal-platedrawing.svg"
   xmlns:inkscape="http://www.inkscape.org/namespaces/inkscape"
   xmlns:sodipodi="http://sodipodi.sourceforge.net/DTD/sodipodi-0.dtd"
   xmlns="http://www.w3.org/2000/svg"
   xmlns:svg="http://www.w3.org/2000/svg">
  <sodipodi:namedview
     id="namedview7"
     pagecolor="#ffffff"
     bordercolor="#000000"
     borderopacity="0.25"
     inkscape:showpageshadow="2"
     inkscape:pageopacity="0.0"
     inkscape:pagecheckerboard="0"
     inkscape:deskcolor="#d1d1d1"
     inkscape:document-units="mm"
     showgrid="false"
     showguides="true"
     inkscape:zoom="0.70710678"
     inkscape:cx="553.66461"
     inkscape:cy="377.59502"
     inkscape:window-width="2560"
     inkscape:window-height="956"
     inkscape:window-x="0"
     inkscape:window-y="32"
     inkscape:window-maximized="1"
     inkscape:current-layer="layer1">
    <sodipodi:guide
       position="109.82585,92.539056"
       orientation="0,-1"
       id="guide474"
       inkscape:locked="false" />
    <sodipodi:guide
       position="105.8878,108.99052"
       orientation="1,0"
       id="guide553"
       inkscape:locked="false" />
    <sodipodi:guide
       position="78.577239,19.082715"
       orientation="1,0"
       id="guide1329"
       inkscape:locked="false" />
    <sodipodi:guide
       position="68.006729,20.860065"
       orientation="1,0"
       id="guide1333"
       inkscape:locked="false" />
  </sodipodi:namedview>
  <defs
     id="defs2" />
  <g
     inkscape:label="Layer 1"
     inkscape:groupmode="layer"
     id="layer1">
    <path
       id="path2116"
       style="fill:#000000;stroke-width:1.53806"
       d="M 148.80539 11.487154 C 144.76172 11.487154 141.50661 14.742778 141.50661 18.78645 L 141.50661 91.542733 C 141.50661 93.820467 142.53946 95.848197 144.16433 97.184766 L 157.16818 108.52826 L 157.16818 198.17395 C 157.16818 202.28337 160.4764 205.5921 164.58582 205.5921 L 204.75029 205.5921 C 208.85971 205.5921 212.16793 202.28337 212.16793 198.17395 L 212.16793 108.46986 L 225.10461 97.184249 C 226.72932 95.84767 227.76233 93.820352 227.76233 91.542733 L 227.76233 18.78645 C 227.76233 14.742778 224.5072 11.487154 220.46355 11.487154 L 210.1448 11.487154 L 159.12414 11.487154 L 148.80539 11.487154 z M 184.66986 17.141073 A 3.5 3.5 0 0 1 188.16991 20.641117 A 3.5 3.5 0 0 1 184.66986 24.141162 A 3.5 3.5 0 0 1 181.16982 20.641117 A 3.5 3.5 0 0 1 184.66986 17.141073 z M 184.66986 30.139762 A 3.5 3.5 0 0 1 188.16991 33.639807 A 3.5 3.5 0 0 1 184.66986 37.139852 A 3.5 3.5 0 0 1 181.16982 33.639807 A 3.5 3.5 0 0 1 184.66986 30.139762 z M 184.66986 43.138969 A 3.5 3.5 0 0 1 188.16991 46.638497 A 3.5 3.5 0 0 1 184.66986 50.138542 A 3.5 3.5 0 0 1 181.16982 46.638497 A 3.5 3.5 0 0 1 184.66986 43.138969 z M 184.66986 56.135075 A 3.5 3.5 0 0 1 188.16991 59.63512 A 3.5 3.5 0 0 1 184.66986 63.135164 A 3.5 3.5 0 0 1 181.16982 59.63512 A 3.5 3.5 0 0 1 184.66986 56.135075 z M 184.66986 69.134281 A 3.5 3.5 0 0 1 188.16991 72.634326 A 3.5 3.5 0 0 1 184.66986 76.133854 A 3.5 3.5 0 0 1 181.16982 72.634326 A 3.5 3.5 0 0 1 184.66986 69.134281 z " />
    <path
       id="rect288"
       style="fill:#000000;fill-opacity:1;stroke-width:1.79488"
       d="M 291.58582 11.493872 C 287.4764 11.493872 284.16818 14.802609 284.16818 18.912024 L 284.16818 103.94869 L 265.8892 119.89449 C 264.26415 121.23106 263.23096 123.25865 263.23096 125.53652 L 263.23096 198.29281 C 263.23096 202.33647 266.48607 205.5921 270.52974 205.5921 L 331.86915 205.5921 C 335.91281 205.5921 339.16793 202.33647 339.16793 198.29281 L 339.16793 120.24486 L 339.16793 18.912024 C 339.16793 14.802609 335.85971 11.493872 331.75029 11.493872 L 291.58582 11.493872 z M 311.66986 17.141073 A 3.5 3.5 0 0 1 315.16991 20.641117 A 3.5 3.5 0 0 1 311.66986 24.141162 A 3.5 3.5 0 0 1 308.16982 20.641117 A 3.5 3.5 0 0 1 311.66986 17.141073 z M 311.66986 30.139762 A 3.5 3.5 0 0 1 315.16991 33.639807 A 3.5 3.5 0 0 1 311.66986 37.139852 A 3.5 3.5 0 0 1 308.16982 33.639807 A 3.5 3.5 0 0 1 311.66986 30.139762 z M 311.66986 43.138969 A 3.5 3.5 0 0 1 315.16991 46.638497 A 3.5 3.5 0 0 1 311.66986 50.138542 A 3.5 3.5 0 0 1 308.16982 46.638497 A 3.5 3.5 0 0 1 311.66986 43.138969 z M 311.66986 56.135075 A 3.5 3.5 0 0 1 315.16991 59.63512 A 3.5 3.5 0 0 1 311.66986 63.135164 A 3.5 3.5 0 0 1 308.16982 59.63512 A 3.5 3.5 0 0 1 311.66986 56.135075 z M 311.66986 69.134281 A 3.5 3.5 0 0 1 315.16991 72.634326 A 3.5 3.5 0 0 1 311.66986 76.133854 A 3.5 3.5 0 0 1 308.16982 72.634326 A 3.5 3.5 0 0 1 311.66986 69.134281 z " />
    <path
       id="rect2068"
       style="fill:#000000;fill-opacity:1;stroke-width:1.79488"
       d="M 53.460819 11.493872 C 49.3514 11.493872 46.043184 14.802605 46.043184 18.912024 L 46.043184 198.17395 C 46.043184 202.28337 49.3514 205.5921 53.460819 205.5921 L 93.625293 205.5921 C 97.734712 205.5921 101.04293 202.28337 101.04293 198.17395 L 101.04293 18.912024 C 101.04293 14.802605 97.734712 11.493872 93.625293 11.493872 L 53.460819 11.493872 z M 73.544865 17.141073 A 3.5 3.5 0 0 1 77.04491 20.641117 A 3.5 3.5 0 0 1 73.544865 24.141162 A 3.5 3.5 0 0 1 70.04482 20.641117 A 3.5 3.5 0 0 1 73.544865 17.141073 z M 73.544865 30.139762 A 3.5 3.5 0 0 1 77.04491 33.639807 A 3.5 3.5 0 0 1 73.544865 37.139852 A 3.5 3.5 0 0 1 70.04482 33.639807 A 3.5 3.5 0 0 1 73.544865 30.139762 z M 73.544865 43.138969 A 3.5 3.5 0 0 1 77.04491 46.638497 A 3.5 3.5 0 0 1 73.544865 50.138542 A 3.5 3.5 0 0 1 70.04482 46.638497 A 3.5 3.5 0 0 1 73.544865 43.138969 z M 73.544865 56.135075 A 3.5 3.5 0 0 1 77.04491 59.63512 A 3.5 3.5 0 0 1 73.544865 63.135164 A 3.5 3.5 0 0 1 70.04482 59.63512 A 3.5 3.5 0 0 1 73.544865 56.135075 z M 73.544865 69.134281 A 3.5 3.5 0 0 1 77.04491 72.634326 A 3.5 3.5 0 0 1 73.544865 76.133854 A 3.5 3.5 0 0 1 70.04482 72.634326 A 3.5 3.5 0 0 1 73.544865 69.134281 z " />
  </g>
</svg>
