<?xml version="1.0" encoding="UTF-8" standalone="no"?>
<!-- Created with Inkscape (http://www.inkscape.org/) -->

<svg
   width="210mm"
   height="297mm"
   viewBox="0 0 210 297"
   version="1.1"
   id="svg5"
   xml:space="preserve"
   inkscape:version="1.2.2 (b0a8486541, 2022-12-01)"
   sodipodi:docname="seq-shifter-part.svg"
   inkscape:export-filename="seq-shifter-part.pdf"
   inkscape:export-xdpi="96"
   inkscape:export-ydpi="96"
   xmlns:inkscape="http://www.inkscape.org/namespaces/inkscape"
   xmlns:sodipodi="http://sodipodi.sourceforge.net/DTD/sodipodi-0.dtd"
   xmlns="http://www.w3.org/2000/svg"
   xmlns:svg="http://www.w3.org/2000/svg"><sodipodi:namedview
     id="namedview7"
     pagecolor="#ffffff"
     bordercolor="#000000"
     borderopacity="0.25"
     inkscape:showpageshadow="2"
     inkscape:pageopacity="0.0"
     inkscape:pagecheckerboard="0"
     inkscape:deskcolor="#d1d1d1"
     inkscape:document-units="mm"
     showgrid="false"
     inkscape:zoom="1.9830139"
     inkscape:cx="232.72656"
     inkscape:cy="558.74545"
     inkscape:window-width="2560"
     inkscape:window-height="956"
     inkscape:window-x="0"
     inkscape:window-y="32"
     inkscape:window-maximized="1"
     inkscape:current-layer="layer1"
     showguides="true"><sodipodi:guide
       position="92.467261,124.4826"
       orientation="1,0"
       id="guide3233"
       inkscape:locked="false" /><sodipodi:guide
       position="131.04606,116.79988"
       orientation="0,-1"
       id="guide3235"
       inkscape:locked="false" /></sodipodi:namedview><defs
     id="defs2" /><g
     inkscape:label="Layer 1"
     inkscape:groupmode="layer"
     id="layer1"><path
       id="rect2372"
       style="fill:#000000;fill-opacity:0.471466;stroke-width:0.0374534"
       d="M 83.524618 118.7049 C 82.663821 118.7049 81.971224 119.39801 81.971224 120.25881 L 81.971224 124.15315 C 81.971224 125.01393 82.663821 125.70654 83.524618 125.70654 L 85.193766 125.70654 L 85.193766 172.7078 L 78.217448 172.7078 C 77.012368 172.7078 76.04187 173.67778 76.04187 174.88287 L 76.04187 185.52976 C 76.04187 186.73484 77.012368 187.70482 78.217448 187.70482 L 85.193766 187.70482 L 99.746366 187.70482 L 106.7232 187.70482 C 107.55981 187.70482 108.28296 187.23693 108.64712 186.54779 L 126.79433 186.54779 C 128.04702 186.54779 129.05569 185.53963 129.05569 184.28694 L 129.05569 176.04145 C 129.05569 174.78876 128.04702 173.78061 126.79433 173.78061 L 108.60009 173.78061 C 108.22296 173.13776 107.52534 172.7078 106.7232 172.7078 L 99.746366 172.7078 L 99.746366 125.70654 L 101.41603 125.70654 C 102.27683 125.70654 102.96943 125.01393 102.96943 124.15315 L 102.96943 120.25881 C 102.96943 119.39801 102.27683 118.7049 101.41603 118.7049 L 83.524618 118.7049 z M 92.459473 137.99364 A 1.4797232 1.4797232 0 0 1 93.939486 139.47366 A 1.4797232 1.4797232 0 0 1 92.459473 140.95315 A 1.4797232 1.4797232 0 0 1 90.979976 139.47366 A 1.4797232 1.4797232 0 0 1 92.459473 137.99364 z M 92.479626 158.01723 A 1.4797232 1.4797232 0 0 1 93.959123 159.49672 A 1.4797232 1.4797232 0 0 1 92.479626 160.97674 A 1.4797232 1.4797232 0 0 1 91.00013 159.49672 A 1.4797232 1.4797232 0 0 1 92.479626 158.01723 z M 123.54698 177.63257 A 2.5377896 2.5377896 0 0 1 126.08481 180.1704 A 2.5377896 2.5377896 0 0 1 123.54698 182.70823 A 2.5377896 2.5377896 0 0 1 121.00915 180.1704 A 2.5377896 2.5377896 0 0 1 123.54698 177.63257 z M 111.10691 177.64135 A 2.5377896 2.5377896 0 0 1 113.64423 180.17918 A 2.5377896 2.5377896 0 0 1 111.10691 182.71701 A 2.5377896 2.5377896 0 0 1 108.56908 180.17918 A 2.5377896 2.5377896 0 0 1 111.10691 177.64135 z M 92.469291 179.33066 A 3.3175399 3.3175399 0 0 1 95.786918 182.64828 A 3.3175399 3.3175399 0 0 1 92.469291 185.96591 A 3.3175399 3.3175399 0 0 1 89.151664 182.64828 A 3.3175399 3.3175399 0 0 1 92.469291 179.33066 z " /><path
       id="path4778"
       style="fill:#000000;fill-opacity:0.471466;stroke-width:0.0374534"
       d="m 150.6771,187.70482 c 0.8608,0 1.5534,-0.69311 1.5534,-1.55391 v -3.89434 c 0,-0.86078 -0.6926,-1.55339 -1.5534,-1.55339 h -1.66915 v -47.00126 h 6.97633 c 1.20508,0 2.17558,-0.96998 2.17558,-2.17507 v -10.64689 c 0,-1.20508 -0.9705,-2.17506 -2.17558,-2.17506 h -6.97633 -14.5526 -6.97684 c -0.83661,0 -1.55976,0.46789 -1.92392,1.15703 h -18.14721 c -1.25269,0 -2.26136,1.00816 -2.26136,2.26085 v 8.24549 c 0,1.25269 1.00867,2.26084 2.26136,2.26084 h 18.19424 c 0.37713,0.64285 1.07475,1.07281 1.87689,1.07281 h 6.97684 v 47.00126 h -1.66967 c -0.8608,0 -1.5534,0.69261 -1.5534,1.55339 v 3.89434 c 0,0.8608 0.6926,1.55391 1.5534,1.55391 z m -8.93486,-19.28874 a 1.4797232,1.4797232 0 0 1 -1.48001,-1.48002 1.4797232,1.4797232 0 0 1 1.48001,-1.47949 1.4797232,1.4797232 0 0 1 1.4795,1.47949 1.4797232,1.4797232 0 0 1 -1.4795,1.48002 z m -0.0202,-20.02359 a 1.4797232,1.4797232 0 0 1 -1.47949,-1.47949 1.4797232,1.4797232 0 0 1 1.47949,-1.48002 1.4797232,1.4797232 0 0 1 1.4795,1.48002 1.4797232,1.4797232 0 0 1 -1.4795,1.47949 z m -31.06735,-19.61534 a 2.5377896,2.5377896 0 0 1 -2.53783,-2.53783 2.5377896,2.5377896 0 0 1 2.53783,-2.53783 2.5377896,2.5377896 0 0 1 2.53783,2.53783 2.5377896,2.5377896 0 0 1 -2.53783,2.53783 z m 12.44007,-0.009 a 2.5377896,2.5377896 0 0 1 -2.53732,-2.53783 2.5377896,2.5377896 0 0 1 2.53732,-2.53783 2.5377896,2.5377896 0 0 1 2.53783,2.53783 2.5377896,2.5377896 0 0 1 -2.53783,2.53783 z m 18.63762,-1.68931 a 3.3175399,3.3175399 0 0 1 -3.31762,-3.31762 3.3175399,3.3175399 0 0 1 3.31762,-3.31763 3.3175399,3.3175399 0 0 1 3.31763,3.31763 3.3175399,3.3175399 0 0 1 -3.31763,3.31762 z" /></g></svg>
