<?xml version="1.0" encoding="UTF-8" standalone="no"?>
<!-- Created with Inkscape (http://www.inkscape.org/) -->

<svg
   version="1.1"
   id="svg1"
   width="1133.8586"
   height="755.90533"
   viewBox="0 0 1133.8586 755.90533"
   sodipodi:docname="F1_Steering_wheel_CNC_cut.svg"
   inkscape:version="1.3 (0e150ed6c4, 2023-07-21)"
   xmlns:inkscape="http://www.inkscape.org/namespaces/inkscape"
   xmlns:sodipodi="http://sodipodi.sourceforge.net/DTD/sodipodi-0.dtd"
   xmlns="http://www.w3.org/2000/svg"
   xmlns:svg="http://www.w3.org/2000/svg">
  <defs
     id="defs1">
    <clipPath
       clipPathUnits="userSpaceOnUse"
       id="clipPath2">
      <path
         d="M 0,566.929 H 850.394 V 0 H 0 Z"
         transform="translate(-669.85352,-476.98581)"
         id="path2" />
    </clipPath>
    <clipPath
       clipPathUnits="userSpaceOnUse"
       id="clipPath4">
      <path
         d="M 0,566.929 H 850.394 V 0 H 0 Z"
         transform="translate(-364.56541,-247.86521)"
         id="path4" />
    </clipPath>
    <clipPath
       clipPathUnits="userSpaceOnUse"
       id="clipPath6">
      <path
         d="M 0,566.929 H 850.394 V 0 H 0 Z"
         transform="translate(-541.09961,-428.00391)"
         id="path6" />
    </clipPath>
    <clipPath
       clipPathUnits="userSpaceOnUse"
       id="clipPath8">
      <path
         d="M 0,566.929 H 850.394 V 0 H 0 Z"
         transform="translate(-626.32421,-325.67431)"
         id="path8" />
    </clipPath>
    <clipPath
       clipPathUnits="userSpaceOnUse"
       id="clipPath10">
      <path
         d="M 0,566.929 H 850.394 V 0 H 0 Z"
         transform="translate(-48.746101,-381.58941)"
         id="path10" />
    </clipPath>
    <clipPath
       clipPathUnits="userSpaceOnUse"
       id="clipPath12">
      <path
         d="M 0,566.929 H 850.394 V 0 H 0 Z"
         transform="translate(-242.6641,-229.90721)"
         id="path12" />
    </clipPath>
    <clipPath
       clipPathUnits="userSpaceOnUse"
       id="clipPath14">
      <path
         d="M 0,566.929 H 850.394 V 0 H 0 Z"
         transform="translate(-520.62401,-229.90721)"
         id="path14" />
    </clipPath>
    <clipPath
       clipPathUnits="userSpaceOnUse"
       id="clipPath16">
      <path
         d="M 0,566.929 H 850.394 V 0 H 0 Z"
         transform="translate(-229.0894,-491.90621)"
         id="path16" />
    </clipPath>
    <clipPath
       clipPathUnits="userSpaceOnUse"
       id="clipPath18">
      <path
         d="M 0,566.929 H 850.394 V 0 H 0 Z"
         transform="translate(-106.96041,-444.27391)"
         id="path18" />
    </clipPath>
    <clipPath
       clipPathUnits="userSpaceOnUse"
       id="clipPath20">
      <path
         d="M 0,566.929 H 850.394 V 0 H 0 Z"
         transform="translate(-716.52732,-381.58941)"
         id="path20" />
    </clipPath>
    <clipPath
       clipPathUnits="userSpaceOnUse"
       id="clipPath22">
      <path
         d="M 0,566.929 H 850.394 V 0 H 0 Z"
         transform="translate(-684.20122,-167.23831)"
         id="path22" />
    </clipPath>
    <clipPath
       clipPathUnits="userSpaceOnUse"
       id="clipPath24">
      <path
         d="M 0,566.929 H 850.394 V 0 H 0 Z"
         transform="translate(-138.9502,-325.67431)"
         id="path24" />
    </clipPath>
    <clipPath
       clipPathUnits="userSpaceOnUse"
       id="clipPath26">
      <path
         d="M 0,566.929 H 850.394 V 0 H 0 Z"
         transform="translate(-81.072805,-167.23831)"
         id="path26" />
    </clipPath>
    <clipPath
       clipPathUnits="userSpaceOnUse"
       id="clipPath28">
      <path
         d="M 0,566.929 H 850.394 V 0 H 0 Z"
         transform="translate(-597.99802,-381.39361)"
         id="path28" />
    </clipPath>
    <clipPath
       clipPathUnits="userSpaceOnUse"
       id="clipPath30">
      <path
         d="M 0,566.929 H 850.394 V 0 H 0 Z"
         transform="translate(-534.20021,-491.90621)"
         id="path30" />
    </clipPath>
    <clipPath
       clipPathUnits="userSpaceOnUse"
       id="clipPath32">
      <path
         d="M 0,566.929 H 850.394 V 0 H 0 Z"
         transform="translate(-177.87891,-482.34771)"
         id="path32" />
    </clipPath>
    <clipPath
       clipPathUnits="userSpaceOnUse"
       id="clipPath34">
      <path
         d="M 0,566.929 H 850.394 V 0 H 0 Z"
         transform="translate(-122.3608,-497.92291)"
         id="path34" />
    </clipPath>
    <clipPath
       clipPathUnits="userSpaceOnUse"
       id="clipPath36">
      <path
         d="M 0,566.929 H 850.394 V 0 H 0 Z"
         transform="translate(-614.56642,-497.92291)"
         id="path36" />
    </clipPath>
    <clipPath
       clipPathUnits="userSpaceOnUse"
       id="clipPath38">
      <path
         d="M 0,566.929 H 850.394 V 0 H 0 Z"
         transform="translate(-559.04881,-482.34771)"
         id="path38" />
    </clipPath>
    <clipPath
       clipPathUnits="userSpaceOnUse"
       id="clipPath40">
      <path
         d="M 0,566.929 H 850.394 V 0 H 0 Z"
         transform="translate(-415.51951,-196.1074)"
         id="path40" />
    </clipPath>
    <clipPath
       clipPathUnits="userSpaceOnUse"
       id="clipPath42">
      <path
         d="M 0,566.929 H 850.394 V 0 H 0 Z"
         transform="translate(-195.8262,-428.00391)"
         id="path42" />
    </clipPath>
    <clipPath
       clipPathUnits="userSpaceOnUse"
       id="clipPath44">
      <path
         d="M 0,566.929 H 850.394 V 0 H 0 Z"
         transform="translate(-59.278801,-476.98581)"
         id="path44" />
    </clipPath>
    <clipPath
       clipPathUnits="userSpaceOnUse"
       id="clipPath46">
      <path
         d="M 0,566.929 H 850.394 V 0 H 0 Z"
         transform="translate(-313.61181,-196.1074)"
         id="path46" />
    </clipPath>
    <clipPath
       clipPathUnits="userSpaceOnUse"
       id="clipPath48">
      <path
         d="M 0,566.929 H 850.394 V 0 H 0 Z"
         transform="translate(-740.24022,-475.84671)"
         id="path48" />
    </clipPath>
    <clipPath
       clipPathUnits="userSpaceOnUse"
       id="clipPath50">
      <path
         d="M 0,566.929 H 850.394 V 0 H 0 Z"
         transform="translate(-381.64401,-327.23491)"
         id="path50" />
    </clipPath>
    <clipPath
       clipPathUnits="userSpaceOnUse"
       id="clipPath52">
      <path
         d="M 0,566.929 H 850.394 V 0 H 0 Z"
         transform="translate(-230.1328,-337.72311)"
         id="path52" />
    </clipPath>
    <clipPath
       clipPathUnits="userSpaceOnUse"
       id="clipPath54">
      <path
         d="M 0,566.929 H 850.394 V 0 H 0 Z"
         transform="translate(-501.12502,-337.72311)"
         id="path54" />
    </clipPath>
    <clipPath
       clipPathUnits="userSpaceOnUse"
       id="clipPath56">
      <path
         d="M 0,566.929 H 850.394 V 0 H 0 Z"
         transform="translate(-291.30031,-518.49761)"
         id="path56" />
    </clipPath>
    <clipPath
       clipPathUnits="userSpaceOnUse"
       id="clipPath58">
      <path
         d="M 0,566.929 H 850.394 V 0 H 0 Z"
         transform="translate(-602.09182,-126.395)"
         id="path58" />
    </clipPath>
    <clipPath
       clipPathUnits="userSpaceOnUse"
       id="clipPath60">
      <path
         d="M 0,566.929 H 850.394 V 0 H 0 Z"
         transform="translate(-573.92191,-129.5591)"
         id="path60" />
    </clipPath>
    <clipPath
       clipPathUnits="userSpaceOnUse"
       id="clipPath62">
      <path
         d="M 0,566.929 H 850.394 V 0 H 0 Z"
         transform="translate(-547.82911,-28.647003)"
         id="path62" />
    </clipPath>
    <clipPath
       clipPathUnits="userSpaceOnUse"
       id="clipPath64">
      <path
         d="M 0,566.929 H 850.394 V 0 H 0 Z"
         transform="translate(-788.32322,-50.525899)"
         id="path64" />
    </clipPath>
    <clipPath
       clipPathUnits="userSpaceOnUse"
       id="clipPath66">
      <path
         d="M 0,566.929 H 850.394 V 0 H 0 Z"
         transform="translate(-760.15329,-47.361799)"
         id="path66" />
    </clipPath>
    <clipPath
       clipPathUnits="userSpaceOnUse"
       id="clipPath68">
      <path
         d="M 0,566.929 H 850.394 V 0 H 0 Z"
         transform="translate(-734.05962,-148.2739)"
         id="path68" />
    </clipPath>
    <clipPath
       clipPathUnits="userSpaceOnUse"
       id="clipPath70">
      <path
         d="M 0,566.929 H 850.394 V 0 H 0 Z"
         transform="translate(-809.62795,-261.5654)"
         id="path70" />
    </clipPath>
    <clipPath
       clipPathUnits="userSpaceOnUse"
       id="clipPath72">
      <path
         d="M 0,566.929 H 850.394 V 0 H 0 Z"
         transform="translate(-781.45802,-264.7295)"
         id="path72" />
    </clipPath>
    <clipPath
       clipPathUnits="userSpaceOnUse"
       id="clipPath74">
      <path
         d="M 0,566.929 H 850.394 V 0 H 0 Z"
         transform="translate(-763.83692,-163.1807)"
         id="path74" />
    </clipPath>
    <clipPath
       clipPathUnits="userSpaceOnUse"
       id="clipPath76">
      <path
         d="M 0,566.929 H 850.394 V 0 H 0 Z"
         transform="translate(-203.13381,-120.30661)"
         id="path76" />
    </clipPath>
    <clipPath
       clipPathUnits="userSpaceOnUse"
       id="clipPath78">
      <path
         d="M 0,566.929 H 850.394 V 0 H 0 Z"
         transform="translate(-231.3037,-123.47071)"
         id="path78" />
    </clipPath>
    <clipPath
       clipPathUnits="userSpaceOnUse"
       id="clipPath80">
      <path
         d="M 0,566.929 H 850.394 V 0 H 0 Z"
         transform="translate(-194.9697,-137.25001)"
         id="path80" />
    </clipPath>
    <clipPath
       clipPathUnits="userSpaceOnUse"
       id="clipPath82">
      <path
         d="M 0,566.929 H 850.394 V 0 H 0 Z"
         transform="translate(-810.1855,-371.72711)"
         id="path82" />
    </clipPath>
    <clipPath
       clipPathUnits="userSpaceOnUse"
       id="clipPath84">
      <path
         d="M 0,566.929 H 850.394 V 0 H 0 Z"
         transform="translate(-782.01564,-368.56301)"
         id="path84" />
    </clipPath>
    <clipPath
       clipPathUnits="userSpaceOnUse"
       id="clipPath86">
      <path
         d="M 0,566.929 H 850.394 V 0 H 0 Z"
         transform="translate(-764.39454,-470.11181)"
         id="path86" />
    </clipPath>
    <clipPath
       clipPathUnits="userSpaceOnUse"
       id="clipPath88">
      <path
         d="M 0,566.929 H 850.394 V 0 H 0 Z"
         transform="translate(-370.96781,-40.050799)"
         id="path88" />
    </clipPath>
    <clipPath
       clipPathUnits="userSpaceOnUse"
       id="clipPath90">
      <path
         d="M 0,566.929 H 850.394 V 0 H 0 Z"
         transform="translate(-399.13771,-36.886698)"
         id="path90" />
    </clipPath>
    <clipPath
       clipPathUnits="userSpaceOnUse"
       id="clipPath92">
      <path
         d="M 0,566.929 H 850.394 V 0 H 0 Z"
         transform="translate(-362.80371,-23.109401)"
         id="path92" />
    </clipPath>
  </defs>
  <sodipodi:namedview
     id="namedview1"
     pagecolor="#ffffff"
     bordercolor="#000000"
     borderopacity="0.25"
     inkscape:showpageshadow="2"
     inkscape:pageopacity="0.0"
     inkscape:pagecheckerboard="0"
     inkscape:deskcolor="#d1d1d1"
     inkscape:zoom="0.55099492"
     inkscape:cx="313.07004"
     inkscape:cy="628.86242"
     inkscape:window-width="1920"
     inkscape:window-height="1009"
     inkscape:window-x="-8"
     inkscape:window-y="-8"
     inkscape:window-maximized="1"
     inkscape:current-layer="layer-MC0">
    <inkscape:page
       x="0"
       y="0"
       inkscape:label="1"
       id="page1"
       width="1133.8586"
       height="755.90533"
       margin="24.433599 19.257334 16.757334 17.4212"
       bleed="0"
       inkscape:export-filename="F1_Steering_wheel_CNC_cut.pdf"
       inkscape:export-xdpi="96"
       inkscape:export-ydpi="96" />
  </sodipodi:namedview>
  <g
     id="layer-MC0"
     inkscape:groupmode="layer"
     inkscape:label="Layer 1">
    <path
       id="path1"
       d="M 0,0 C 0,12.72 10.313,23.031 23.031,23.031 35.752,23.031 46.063,12.72 46.063,0 46.063,-12.72 35.752,-23.032 23.031,-23.032 10.313,-23.032 0,-12.72 0,0 Z"
       style="fill:none;stroke:#000000;stroke-width:0.709;stroke-linecap:round;stroke-linejoin:round;stroke-miterlimit:10;stroke-dasharray:none;stroke-opacity:1"
       transform="matrix(1.3333333,0,0,-1.3333333,893.138,119.92427)"
       clip-path="url(#clipPath2)" />
    <path
       id="path3"
       d="M 0,0 C 0,12.72 10.313,23.031 23.032,23.031 35.753,23.031 46.063,12.72 46.063,0 46.063,-12.72 35.753,-23.032 23.032,-23.032 10.313,-23.032 0,-12.72 0,0 Z"
       style="fill:none;stroke:#000000;stroke-width:0.709;stroke-linecap:round;stroke-linejoin:round;stroke-miterlimit:10;stroke-dasharray:none;stroke-opacity:1"
       transform="matrix(1.3333333,0,0,-1.3333333,486.0872,425.4184)"
       clip-path="url(#clipPath4)" />
    <path
       id="path5"
       d="M 0,0 C 0,10.567 8.567,19.134 19.137,19.134 29.704,19.134 38.27,10.567 38.27,0 38.27,-10.567 29.704,-19.134 19.137,-19.134 8.567,-19.134 0,-10.567 0,0 Z"
       style="fill:none;stroke:#000000;stroke-width:0.709;stroke-linecap:round;stroke-linejoin:round;stroke-miterlimit:10;stroke-dasharray:none;stroke-opacity:1"
       transform="matrix(1.3333333,0,0,-1.3333333,721.46613,185.23347)"
       clip-path="url(#clipPath6)" />
    <path
       id="path7"
       d="M 0,0 C 0,2.74 2.221,4.961 4.961,4.961 7.699,4.961 9.922,2.74 9.922,0 9.922,-2.74 7.699,-4.96 4.961,-4.96 2.221,-4.96 0,-2.74 0,0 Z"
       style="fill:none;stroke:#000000;stroke-width:0.709;stroke-linecap:round;stroke-linejoin:round;stroke-miterlimit:10;stroke-dasharray:none;stroke-opacity:1"
       transform="matrix(1.3333333,0,0,-1.3333333,835.09893,321.67293)"
       clip-path="url(#clipPath8)" />
    <path
       id="path9"
       d="M 0,0 C 0,2.74 2.221,4.961 4.96,4.961 7.7,4.961 9.921,2.74 9.921,0 9.921,-2.74 7.7,-4.96 4.96,-4.96 2.221,-4.96 0,-2.74 0,0 Z"
       style="fill:none;stroke:#000000;stroke-width:0.709;stroke-linecap:round;stroke-linejoin:round;stroke-miterlimit:10;stroke-dasharray:none;stroke-opacity:1"
       transform="matrix(1.3333333,0,0,-1.3333333,64.9948,247.11947)"
       clip-path="url(#clipPath10)" />
    <path
       id="path11"
       d="M 0,0 C 0,3.288 2.666,5.953 5.953,5.953 9.24,5.953 11.906,3.288 11.906,0 11.906,-3.288 9.24,-5.953 5.953,-5.953 2.666,-5.953 0,-3.288 0,0 Z"
       style="fill:none;stroke:#000000;stroke-width:0.709;stroke-linecap:round;stroke-linejoin:round;stroke-miterlimit:10;stroke-dasharray:none;stroke-opacity:1"
       transform="matrix(1.3333333,0,0,-1.3333333,323.55213,449.3624)"
       clip-path="url(#clipPath12)" />
    <path
       id="path13"
       d="m 0,0 c 0,3.288 2.666,5.953 5.954,5.953 3.29,0 5.954,-2.665 5.954,-5.953 0,-3.288 -2.664,-5.953 -5.954,-5.953 C 2.666,-5.953 0,-3.288 0,0 Z"
       style="fill:none;stroke:#000000;stroke-width:0.709;stroke-linecap:round;stroke-linejoin:round;stroke-miterlimit:10;stroke-dasharray:none;stroke-opacity:1"
       transform="matrix(1.3333333,0,0,-1.3333333,694.16533,449.3624)"
       clip-path="url(#clipPath14)" />
    <path
       id="path15"
       d="M 0,0 C 0,3.288 2.665,5.953 5.953,5.953 9.24,5.953 11.905,3.288 11.905,0 11.905,-3.288 9.24,-5.953 5.953,-5.953 2.665,-5.953 0,-3.288 0,0 Z"
       style="fill:none;stroke:#000000;stroke-width:0.709;stroke-linecap:round;stroke-linejoin:round;stroke-miterlimit:10;stroke-dasharray:none;stroke-opacity:1"
       transform="matrix(1.3333333,0,0,-1.3333333,305.45253,100.0304)"
       clip-path="url(#clipPath16)" />
    <path
       id="path17"
       d="m 0,0 -10.926,-4.527 c -0.556,-0.23 -0.999,-0.674 -1.228,-1.231 -0.026,-0.062 -0.05,-0.124 -0.074,-0.186 -3.524,-9.289 -6.604,-18.741 -9.229,-28.323 -6.412,-23.403 7.362,-47.573 30.765,-53.986 7.445,-2.04 15.297,-2.082 22.765,-0.122 l 26.061,6.84 c 1.791,0.471 3.545,1.07 5.249,1.794 0.098,0.042 0.196,0.086 0.292,0.132 0.544,0.26 0.961,0.727 1.16,1.296 l 5.402,15.433 c 0.103,0.296 0.255,0.571 0.449,0.817 4.614,5.857 6.734,13.296 5.902,20.706 L 71.806,1.224 C 70.408,13.67 59.185,22.626 46.739,21.228 46.262,21.175 45.788,21.106 45.315,21.022 37.328,19.607 29.354,18.121 21.393,16.562 12.744,14.869 5.375,9.25 1.454,1.357 1.149,0.744 0.633,0.262 0,0 Z"
       style="fill:none;stroke:#000000;stroke-width:0.709;stroke-linecap:round;stroke-linejoin:round;stroke-miterlimit:10;stroke-dasharray:none;stroke-opacity:1"
       transform="matrix(1.3333333,0,0,-1.3333333,142.61387,163.54013)"
       clip-path="url(#clipPath18)" />
    <path
       id="path19"
       d="M 0,0 C 0,2.74 2.223,4.961 4.961,4.961 7.701,4.961 9.922,2.74 9.922,0 9.922,-2.74 7.701,-4.96 4.961,-4.96 2.223,-4.96 0,-2.74 0,0 Z"
       style="fill:none;stroke:#000000;stroke-width:0.709;stroke-linecap:round;stroke-linejoin:round;stroke-miterlimit:10;stroke-dasharray:none;stroke-opacity:1"
       transform="matrix(1.3333333,0,0,-1.3333333,955.36973,247.11947)"
       clip-path="url(#clipPath20)" />
    <path
       id="path21"
       d="M 0,0 C 0,2.74 2.223,4.96 4.961,4.96 7.701,4.96 9.922,2.74 9.922,0 9.922,-2.74 7.701,-4.96 4.961,-4.96 2.223,-4.96 0,-2.74 0,0 Z"
       style="fill:none;stroke:#000000;stroke-width:0.709;stroke-linecap:round;stroke-linejoin:round;stroke-miterlimit:10;stroke-dasharray:none;stroke-opacity:1"
       transform="matrix(1.3333333,0,0,-1.3333333,912.26827,532.92093)"
       clip-path="url(#clipPath22)" />
    <path
       id="path23"
       d="M 0,0 C 0,2.74 2.221,4.961 4.96,4.961 7.7,4.961 9.921,2.74 9.921,0 9.921,-2.74 7.7,-4.96 4.96,-4.96 2.221,-4.96 0,-2.74 0,0 Z"
       style="fill:none;stroke:#000000;stroke-width:0.709;stroke-linecap:round;stroke-linejoin:round;stroke-miterlimit:10;stroke-dasharray:none;stroke-opacity:1"
       transform="matrix(1.3333333,0,0,-1.3333333,185.26693,321.67293)"
       clip-path="url(#clipPath24)" />
    <path
       id="path25"
       d="M 0,0 C 0,2.74 2.221,4.96 4.96,4.96 7.7,4.96 9.921,2.74 9.921,0 9.921,-2.74 7.7,-4.96 4.96,-4.96 2.221,-4.96 0,-2.74 0,0 Z"
       style="fill:none;stroke:#000000;stroke-width:0.709;stroke-linecap:round;stroke-linejoin:round;stroke-miterlimit:10;stroke-dasharray:none;stroke-opacity:1"
       transform="matrix(1.3333333,0,0,-1.3333333,108.09707,532.92093)"
       clip-path="url(#clipPath26)" />
    <path
       id="path27"
       d="m 0,0 5.4,-15.433 c 0.202,-0.569 0.62,-1.035 1.162,-1.296 0.096,-0.046 0.194,-0.09 0.293,-0.132 1.704,-0.724 3.458,-1.323 5.249,-1.793 l 26.06,-6.841 c 23.471,-6.16 47.492,7.872 53.652,31.343 1.959,7.467 1.918,15.319 -0.123,22.765 -2.625,9.582 -5.705,19.034 -9.228,28.323 -0.024,0.063 -0.049,0.125 -0.072,0.187 -0.231,0.557 -0.672,1 -1.231,1.231 L 70.236,62.88 c -0.631,0.263 -1.148,0.745 -1.453,1.358 C 64.861,72.13 57.492,77.75 48.844,79.443 40.885,81.001 32.908,82.488 24.922,83.903 12.59,86.087 0.82,77.86 -1.361,65.528 -1.445,65.056 -1.516,64.581 -1.568,64.104 L -6.352,21.523 C -7.184,14.114 -5.062,6.675 -0.447,0.818 -0.256,0.572 -0.104,0.296 0,0 Z"
       style="fill:none;stroke:#000000;stroke-width:0.709;stroke-linecap:round;stroke-linejoin:round;stroke-miterlimit:10;stroke-dasharray:none;stroke-opacity:1"
       transform="matrix(1.3333333,0,0,-1.3333333,797.33067,247.38053)"
       clip-path="url(#clipPath28)" />
    <path
       id="path29"
       d="m 0,0 c 0,3.288 2.664,5.953 5.952,5.953 3.29,0 5.954,-2.665 5.954,-5.953 0,-3.288 -2.664,-5.953 -5.954,-5.953 C 2.664,-5.953 0,-3.288 0,0 Z"
       style="fill:none;stroke:#000000;stroke-width:0.709;stroke-linecap:round;stroke-linejoin:round;stroke-miterlimit:10;stroke-dasharray:none;stroke-opacity:1"
       transform="matrix(1.3333333,0,0,-1.3333333,712.26693,100.0304)"
       clip-path="url(#clipPath30)" />
    <path
       id="path31"
       d="m 0,0 c 0,10.568 8.566,19.134 19.134,19.134 10.568,0 19.135,-8.566 19.135,-19.134 0,-10.567 -8.567,-19.134 -19.135,-19.134 C 8.566,-19.134 0,-10.567 0,0 Z"
       style="fill:none;stroke:#000000;stroke-width:0.709;stroke-linecap:round;stroke-linejoin:round;stroke-miterlimit:10;stroke-dasharray:none;stroke-opacity:1"
       transform="matrix(1.3333333,0,0,-1.3333333,237.17187,112.77507)"
       clip-path="url(#clipPath32)" />
    <path
       id="path33"
       d="m 0,0 c 0,10.567 8.566,19.134 19.134,19.134 10.568,0 19.135,-8.567 19.135,-19.134 0,-10.567 -8.567,-19.134 -19.135,-19.134 C 8.566,-19.134 0,-10.567 0,0 Z"
       style="fill:none;stroke:#000000;stroke-width:0.709;stroke-linecap:round;stroke-linejoin:round;stroke-miterlimit:10;stroke-dasharray:none;stroke-opacity:1"
       transform="matrix(1.3333333,0,0,-1.3333333,163.14773,92.008133)"
       clip-path="url(#clipPath34)" />
    <path
       id="path35"
       d="M 0,0 C 0,10.567 8.565,19.134 19.135,19.134 29.702,19.134 38.27,10.567 38.27,0 38.27,-10.567 29.702,-19.134 19.135,-19.134 8.565,-19.134 0,-10.567 0,0 Z"
       style="fill:none;stroke:#000000;stroke-width:0.709;stroke-linecap:round;stroke-linejoin:round;stroke-miterlimit:10;stroke-dasharray:none;stroke-opacity:1"
       transform="matrix(1.3333333,0,0,-1.3333333,819.42187,92.008133)"
       clip-path="url(#clipPath36)" />
    <path
       id="path37"
       d="m 0,0 c 0,10.568 8.565,19.134 19.135,19.134 10.567,0 19.133,-8.566 19.133,-19.134 0,-10.567 -8.566,-19.134 -19.133,-19.134 C 8.565,-19.134 0,-10.567 0,0 Z"
       style="fill:none;stroke:#000000;stroke-width:0.709;stroke-linecap:round;stroke-linejoin:round;stroke-miterlimit:10;stroke-dasharray:none;stroke-opacity:1"
       transform="matrix(1.3333333,0,0,-1.3333333,745.3984,112.77507)"
       clip-path="url(#clipPath38)" />
    <path
       id="path39"
       d="M 0,0 C 0,12.72 10.313,23.031 23.033,23.031 35.752,23.031 46.064,12.72 46.064,0 46.064,-12.72 35.752,-23.032 23.033,-23.032 10.313,-23.032 0,-12.72 0,0 Z"
       style="fill:none;stroke:#000000;stroke-width:0.709;stroke-linecap:round;stroke-linejoin:round;stroke-miterlimit:10;stroke-dasharray:none;stroke-opacity:1"
       transform="matrix(1.3333333,0,0,-1.3333333,554.026,494.4288)"
       clip-path="url(#clipPath40)" />
    <path
       id="path41"
       d="m 0,0 c 0,10.567 8.567,19.134 19.134,19.134 10.568,0 19.135,-8.567 19.135,-19.134 0,-10.567 -8.567,-19.134 -19.135,-19.134 C 8.567,-19.134 0,-10.567 0,0 Z"
       style="fill:none;stroke:#000000;stroke-width:0.709;stroke-linecap:round;stroke-linejoin:round;stroke-miterlimit:10;stroke-dasharray:none;stroke-opacity:1"
       transform="matrix(1.3333333,0,0,-1.3333333,261.1016,185.23347)"
       clip-path="url(#clipPath42)" />
    <path
       id="path43"
       d="M 0,0 C 0,12.72 10.312,23.031 23.032,23.031 35.751,23.031 46.063,12.72 46.063,0 46.063,-12.72 35.751,-23.032 23.032,-23.032 10.312,-23.032 0,-12.72 0,0 Z"
       style="fill:none;stroke:#000000;stroke-width:0.709;stroke-linecap:round;stroke-linejoin:round;stroke-miterlimit:10;stroke-dasharray:none;stroke-opacity:1"
       transform="matrix(1.3333333,0,0,-1.3333333,79.0384,119.92427)"
       clip-path="url(#clipPath44)" />
    <path
       id="path45"
       d="M 0,0 C 0,12.72 10.312,23.031 23.032,23.031 35.751,23.031 46.063,12.72 46.063,0 46.063,-12.72 35.751,-23.032 23.032,-23.032 10.312,-23.032 0,-12.72 0,0 Z"
       style="fill:none;stroke:#000000;stroke-width:0.709;stroke-linecap:round;stroke-linejoin:round;stroke-miterlimit:10;stroke-dasharray:none;stroke-opacity:1"
       transform="matrix(1.3333333,0,0,-1.3333333,418.14907,494.4288)"
       clip-path="url(#clipPath46)" />
    <path
       id="path47"
       d="m 0,0 c 0.295,-0.701 0.297,-1.491 0.004,-2.192 l -3.322,-7.964 c -0.563,-1.345 -0.582,-2.856 -0.061,-4.217 47.477,-123.52 26.178,-262.93 -56.016,-366.641 -0.043,-0.056 -0.089,-0.113 -0.136,-0.168 -2.037,-2.377 -5.617,-2.652 -7.994,-0.615 l -38.774,33.235 c -2.303,1.973 -2.644,5.41 -0.775,7.797 20.935,26.756 37.357,56.753 48.617,88.806 9.342,26.586 -4.641,55.71 -31.229,65.05 -1.3,0.458 -2.621,0.863 -3.957,1.213 l -32.773,8.602 c -5.186,1.361 -10.605,1.574 -15.883,0.625 -1.57,-0.283 -2.949,-1.215 -3.799,-2.567 l -6.875,-10.959 c -0.166,-0.265 -0.377,-0.501 -0.619,-0.698 -5.799,-4.687 -9.515,-11.471 -10.347,-18.88 l -4.635,-41.259 c -0.135,-1.191 -0.293,-2.38 -0.479,-3.565 -7.211,-46.409 -50.677,-78.185 -97.088,-70.974 -57.324,8.908 -115.679,8.908 -173.005,0 -1.185,-0.184 -2.374,-0.343 -3.564,-0.477 -46.674,-5.242 -88.759,28.344 -94,75.016 l -4.635,41.259 c -0.832,7.409 -4.551,14.193 -10.348,18.88 -0.244,0.197 -0.453,0.433 -0.619,0.698 l -6.876,10.959 c -0.849,1.352 -2.228,2.284 -3.798,2.567 -5.278,0.949 -10.698,0.736 -15.884,-0.625 l -32.773,-8.602 c -27.255,-7.154 -43.551,-35.049 -36.399,-62.305 0.352,-1.336 0.755,-2.656 1.213,-3.958 11.261,-32.053 27.683,-62.05 48.619,-88.806 1.868,-2.387 1.526,-5.824 -0.775,-7.797 l -38.774,-33.235 c -0.054,-0.047 -0.112,-0.094 -0.169,-0.139 -2.453,-1.944 -6.018,-1.532 -7.964,0.922 -82.191,103.711 -103.489,243.121 -56.015,366.641 0.523,1.361 0.501,2.872 -0.06,4.217 l -3.322,7.964 c -0.293,0.701 -0.292,1.491 0.004,2.192 1.829,4.34 3.739,8.647 5.726,12.917 7.438,15.975 21.881,27.582 39.082,31.409 202.745,45.112 412.924,45.112 615.668,0 C -27.607,40.499 -13.166,28.892 -5.727,12.917 -3.738,8.647 -1.83,4.34 0,0 Z"
       style="fill:none;stroke:#000000;stroke-width:0.709;stroke-linecap:round;stroke-linejoin:round;stroke-miterlimit:10;stroke-dasharray:none;stroke-opacity:1"
       transform="matrix(1.3333333,0,0,-1.3333333,986.98693,121.44307)"
       clip-path="url(#clipPath48)" />
    <path
       id="path49"
       d="m 0,0 c 0,3.288 2.666,5.953 5.954,5.953 3.289,0 5.953,-2.665 5.953,-5.953 0,-3.288 -2.664,-5.953 -5.953,-5.953 C 2.666,-5.953 0,-3.288 0,0 Z"
       style="fill:none;stroke:#000000;stroke-width:0.709;stroke-linecap:round;stroke-linejoin:round;stroke-miterlimit:10;stroke-dasharray:none;stroke-opacity:1"
       transform="matrix(1.3333333,0,0,-1.3333333,508.85867,319.59213)"
       clip-path="url(#clipPath50)" />
    <path
       id="path51"
       d="m 0,0 c 0,12.133 9.836,21.969 21.969,21.969 12.133,0 21.968,-9.836 21.968,-21.969 0,-12.133 -9.835,-21.968 -21.968,-21.968 C 9.836,-21.968 0,-12.133 0,0 Z"
       style="fill:none;stroke:#000000;stroke-width:0.709;stroke-linecap:round;stroke-linejoin:round;stroke-miterlimit:10;stroke-dasharray:none;stroke-opacity:1"
       transform="matrix(1.3333333,0,0,-1.3333333,306.84373,305.60787)"
       clip-path="url(#clipPath52)" />
    <path
       id="path53"
       d="m 0,0 c 0,12.133 9.836,21.969 21.969,21.969 12.133,0 21.969,-9.836 21.969,-21.969 0,-12.133 -9.836,-21.968 -21.969,-21.968 C 9.836,-21.968 0,-12.133 0,0 Z"
       style="fill:none;stroke:#000000;stroke-width:0.709;stroke-linecap:round;stroke-linejoin:round;stroke-miterlimit:10;stroke-dasharray:none;stroke-opacity:1"
       transform="matrix(1.3333333,0,0,-1.3333333,668.16667,305.60787)"
       clip-path="url(#clipPath54)" />
    <path
       id="path55"
       d="m 0,0 h 192.756 c 4.698,0 8.504,-3.808 8.504,-8.504 v -110.551 c 0,-4.697 -3.806,-8.504 -8.504,-8.504 H 0 c -4.696,0 -8.504,3.807 -8.504,8.504 V -8.504 C -8.504,-3.808 -4.696,0 0,0 Z"
       style="fill:none;stroke:#000000;stroke-width:0.709;stroke-linecap:round;stroke-linejoin:round;stroke-miterlimit:10;stroke-dasharray:none;stroke-opacity:1"
       transform="matrix(1.3333333,0,0,-1.3333333,388.4004,64.5752)"
       clip-path="url(#clipPath56)" />
  </g>
</svg>
