<?xml version="1.0" encoding="UTF-8" standalone="no"?>
<svg
   width="841mm"
   height="594mm"
   viewBox="-57 -65.204002 841 594"
   version="1.1"
   id="svg813"
   sodipodi:docname="back-plate-70mm-unfinished.svg"
   xml:space="preserve"
   inkscape:version="1.2.2 (b0a84865, 2022-12-01)"
   xmlns:inkscape="http://www.inkscape.org/namespaces/inkscape"
   xmlns:sodipodi="http://sodipodi.sourceforge.net/DTD/sodipodi-0.dtd"
   xmlns="http://www.w3.org/2000/svg"
   xmlns:svg="http://www.w3.org/2000/svg"
   xmlns:rdf="http://www.w3.org/1999/02/22-rdf-syntax-ns#"
   xmlns:cc="http://creativecommons.org/ns#"
   xmlns:dc="http://purl.org/dc/elements/1.1/"><defs
     id="defs817" /><sodipodi:namedview
     id="namedview815"
     pagecolor="#ffffff"
     bordercolor="#000000"
     borderopacity="0.25"
     inkscape:showpageshadow="2"
     inkscape:pageopacity="0.0"
     inkscape:pagecheckerboard="0"
     inkscape:deskcolor="#d1d1d1"
     inkscape:document-units="mm"
     showgrid="false"
     inkscape:zoom="0.35355339"
     inkscape:cx="992.77792"
     inkscape:cy="1189.3536"
     inkscape:window-width="1643"
     inkscape:window-height="985"
     inkscape:window-x="0"
     inkscape:window-y="25"
     inkscape:window-maximized="0"
     inkscape:current-layer="svg813"
     showguides="true"><sodipodi:guide
       position="20.946265,593.20583"
       orientation="1,0"
       id="guide351"
       inkscape:locked="false" /><sodipodi:guide
       position="15.98585,570.1429"
       orientation="0,-1"
       id="guide353"
       inkscape:locked="false" /><sodipodi:guide
       position="46.061929,572.98094"
       orientation="0,-1"
       id="guide355"
       inkscape:locked="false" /><sodipodi:guide
       position="76.335244,563.30118"
       orientation="1,0"
       id="guide486"
       inkscape:locked="false" /><sodipodi:guide
       position="44.850232,526.31284"
       orientation="0,-1"
       id="guide490"
       inkscape:locked="false" /><sodipodi:guide
       position="106.80941,543.76371"
       orientation="0,-1"
       id="guide643"
       inkscape:locked="false" /><sodipodi:guide
       position="106.62907,543.80838"
       orientation="1,0"
       id="guide645"
       inkscape:locked="false" /><sodipodi:guide
       position="45.977041,543.81346"
       orientation="1,0"
       id="guide669"
       inkscape:locked="false" /><sodipodi:guide
       position="106.64346,508.82642"
       orientation="0,-1"
       id="guide720"
       inkscape:locked="false" /><sodipodi:guide
       position="310.56719,484.17895"
       orientation="1,0"
       id="guide800"
       inkscape:locked="false" /></sodipodi:namedview><title
     id="title807">svgOutput</title><desc
     id="desc809">made with tinkercad</desc><path
     id="path767"
     style="opacity:0.406593;fill:#800000;stroke-width:0.221766"
     d="m 255.04682,111.8519 a 40.953125,40.953125 0 0 0 -25.80257,8.11836 40.953125,40.953125 0 0 0 -8.31525,57.31123 40.953125,40.953125 0 0 0 57.31072,8.32508 l -24.49256,-32.82229 24.51374,32.80627 a 40.953125,40.953125 0 0 0 8.29666,-57.31433 40.953125,40.953125 0 0 0 -31.51074,-16.42432 z m -1.19321,3.51554 a 2.5,2.5 0 0 1 1.9234,1.00304 2.5,2.5 0 0 1 -0.50643,3.4985 l -1.49604,-2.00246 1.495,2.00349 a 2.5,2.5 0 0 1 -3.4985,-0.50798 2.5,2.5 0 0 1 0.50747,-3.49901 2.5,2.5 0 0 1 1.5751,-0.49558 z m -30.40383,17.40101 a 2.5,2.5 0 0 1 0.90743,0.2005 l -0.9834,2.29805 0.98495,-2.29753 a 2.5,2.5 0 0 1 1.31259,3.28249 2.5,2.5 0 0 1 -3.28197,1.3131 2.5,2.5 0 0 1 -1.31414,-3.28197 2.5,2.5 0 0 1 2.37454,-1.51464 z m 60.7012,0.0475 a 2.5,2.5 0 0 1 0.90744,0.20154 2.5,2.5 0 0 1 1.31207,3.28248 2.5,2.5 0 0 1 -3.28249,1.31258 l 0.98495,-2.29805 -0.9865,2.29754 a 2.5,2.5 0 0 1 -1.31103,-3.28352 2.5,2.5 0 0 1 2.37556,-1.51257 z m -60.49812,34.93327 a 2.5,2.5 0 0 1 0.90744,0.2005 l -0.9834,2.29857 0.98495,-2.29805 a 2.5,2.5 0 0 1 1.31258,3.28248 2.5,2.5 0 0 1 -3.28197,1.31362 2.5,2.5 0 0 1 -1.31361,-3.28249 2.5,2.5 0 0 1 2.37401,-1.51463 z m 60.50536,0.004 a 2.5,2.5 0 0 1 1.92391,1.002 2.5,2.5 0 0 1 -0.50591,3.49901 2.5,2.5 0 0 1 -3.49901,-0.50539 2.5,2.5 0 0 1 0.50488,-3.49901 l 1.49758,2.00194 -1.49655,-2.00298 a 2.5,2.5 0 0 1 1.5751,-0.49557 z m -30.28601,17.39842 a 2.5,2.5 0 0 1 1.92392,1.00201 2.5,2.5 0 0 1 -0.5054,3.49901 2.5,2.5 0 0 1 -3.49902,-0.50488 2.5,2.5 0 0 1 0.50437,-3.49901 l 1.49758,2.00142 -1.49603,-2.00246 a 2.5,2.5 0 0 1 1.57458,-0.49609 z" /><path
     d="m 342.58721,81.956259 -0.12643,1.627232 -3.18052,29.673269 -0.35488,3.31079 -0.66087,6.1657 -2.64348,24.66279 -1.32174,12.33139 -0.66088,6.16569 -0.24226,2.26052 -0.0881,0.82233 -0.33045,3.08285 -2.64348,24.66279 -0.88272,8.23547 -0.22553,1.64078 -0.32182,1.62271 -0.21768,0.83242 -0.20043,0.7662 -0.51143,1.56853 -0.60192,1.53238 -0.69243,1.49025 -0.78004,1.44208 -0.86338,1.38938 -0.94238,1.33068 -1.02138,1.26596 -1.09322,1.19822 -0.35986,0.34772 -0.8023,0.77522 -1.22681,1.04769 -1.28572,0.9649 -1.34031,0.87908 -1.22107,0.69395 -0.1695,0.0963 -1.43512,0.69847 -1.47247,0.60513 -1.5055,0.50729 -1.53281,0.40943 -1.55436,0.30704 -1.57015,0.20773 -1.57879,0.10387 -1.58164,0.001 -1.57878,-0.1009 -1.57016,-0.20317 -5.13713,-0.79028 -2.85012,-0.38586 -2.2985,-0.31117 -5.15868,-0.60362 -5.17018,-0.5118 -5.17591,-0.41843 -5.18166,-0.32664 -0.55164,-0.0249 -4.63577,-0.20847 -5.19029,-0.13845 -5.19171,-0.0466 -5.19172,0.0466 -3.32707,0.0888 -1.86321,0.0498 -5.18741,0.23331 -5.18167,0.32664 -5.17591,0.41843 -5.17017,0.5118 -0.95819,0.11208 -4.2005,0.49152 -5.14862,0.69695 -5.13713,0.79028 -1.57016,0.20318 -1.19677,0.0764 -0.38199,0.0244 -1.58165,-0.001 -0.17891,-0.0116 -1.39981,-0.0921 -1.57017,-0.20773 -1.17079,-0.2313 -0.38352,-0.0758 -1.53281,-0.40947 -1.50552,-0.5073 -1.47247,-0.60512 -1.43512,-0.69846 -1.39059,-0.79028 -1.34031,-0.87909 -1.28572,-0.9649 -1.22682,-1.04769 -0.8023,-0.77522 -0.35986,-0.34772 -1.09321,-1.19822 -1.02139,-1.26596 -0.94239,-1.33067 -0.86337,-1.3894 -0.78004,-1.44207 -0.69243,-1.49024 -0.60192,-1.53239 -0.51143,-1.56853 -0.20037,-0.7662 -0.21769,-0.83242 -0.32176,-1.62271 -0.22553,-1.64078 -0.22187,-2.06978 -0.0435,-0.40873 -0.1062,-0.99101 -0.11763,-1.09721 -0.14195,-1.3242 -0.17866,-1.66658 -0.0727,-0.67797 -2.64349,-24.66279 -2.64349,-24.66278 -2.64349,-24.66279 -0.20322,-1.89573 -0.11997,-1.11869 -0.10556,-0.98482 -0.0947,-0.88369 -0.0955,-0.89146 -0.0418,-0.39131 -0.66086,-6.16569 -1.32175,-12.331396 -1.55278,-14.486979 -0.12644,-1.627226 -0.0317,-1.631739 0.0632,-1.631744 0.15943,-1.622713 0.25286,-1.610664 0.34618,-1.591098 0.12882,-0.46064 0.30931,-1.106396 0.52865,-1.535405 0.61771,-1.497767 0.70392,-1.457128 0.31769,-0.569002 0.46811,-0.838454 0.86769,-1.356277 0.94524,-1.297557 1.01853,-1.234344 1.0889,-1.166607 0.28719,-0.272455 0.86783,-0.823395 0.86624,-0.725516 0.35052,-0.293587 1.27423,-0.939306 1.32595,-0.85652 1.37335,-0.770706 1.41645,-0.680394 1.45235,-0.588573 1.48397,-0.495227 1.51125,-0.398883 1.52994,-0.301056 0.0503,-0.0069 1.49545,-0.196607 8.2128,-0.761681 2.06002,-0.165199 6.1614,-0.494115 8.2286,-0.558473 8.23292,-0.457622 8.23865,-0.356722 8.24153,-0.25291 7.97003,-0.148462 0.27436,-0.0049 8.2444,-0.04979 8.24441,0.04979 8.24441,0.153546 8.24153,0.25291 8.23865,0.356723 5.58534,0.31043 2.64757,0.147138 8.22861,0.558468 8.22142,0.659325 4.43896,0.4117 3.77384,0.349996 1.54573,0.203175 1.52993,0.301056 1.51126,0.398936 1.48397,0.495227 1.45235,0.588573 0.47119,0.226375 0.94524,0.454073 1.37336,0.7707 1.32594,0.856515 1.27423,0.939306 1.21676,1.019087 0.86784,0.823395 0.28718,0.272455 0.11821,0.12664 0.60685,0.650151 0.36383,0.389773 0.23061,0.279499 0.78788,0.954823 0.94525,1.297559 0.86767,1.356276 0.46811,0.838453 0.0892,0.159903 0.22839,0.409106 0.70391,1.457127 0.61772,1.497768 0.52865,1.535404 0.43812,1.56701 0.34619,1.591103 0.25285,1.610665 0.15944,1.622713 0.0633,1.631744 -0.0317,1.631738 m -9.1911,-18.262161 -0.19824,-0.305664 -0.54015,-0.535893 -0.42234,-0.2679 -0.46112,-0.18665 -0.4841,-0.102382 -0.49274,-0.01324 -0.48845,0.07526 -0.46975,0.161068 -0.43527,0.243853 -0.39072,0.317634 -0.33189,0.38384 -0.26286,0.436542 -0.10255,0.258895 -0.087,0.219754 -0.10774,0.505767 -0.0244,0.516307 0.0618,0.513288 0.14364,0.495228 0.22266,0.462123 0.26472,0.370282 0.0312,0.04343 0.35773,0.356775 0.41229,0.286013 0.45105,0.209267 0.47982,0.123409 0.49273,0.03601 0.49131,-0.05243 0.47552,-0.139987 0.44534,-0.222773 0.40221,-0.301056 0.32061,-0.338714 0.027,-0.0286 0.21981,-0.329657 0.0632,-0.09481 0.20831,-0.469644 0.12929,-0.499782 0.0445,-0.514824 -0.0387,-0.516308 -0.12351,-0.501265 -0.20402,-0.47118 -0.079,-0.121821 m 2.78405,51.068601 -0.18533,-0.417 -0.25137,-0.37632 -0.31028,-0.32362 -0.35766,-0.26345 -0.39794,-0.19422 -0.42378,-0.11891 -0.43527,-0.0403 -0.42234,0.0392 -0.0143,0.001 -0.42378,0.11891 -0.39644,0.19417 -0.35916,0.26345 -0.31027,0.32362 -0.25137,0.37632 -0.18528,0.417 -0.11356,0.44252 -0.0387,0.45762 0.0387,0.45763 0.11356,0.44406 0.001,0.003 0.184,0.41244 0.25137,0.37632 0.31028,0.32515 0.35916,0.26345 0.3965,0.19423 0.42377,0.11891 0.4367,0.0392 0.43528,-0.0392 0.42377,-0.11891 0.39793,-0.19423 0.35768,-0.26345 0.31026,-0.32515 0.25138,-0.37632 0.184,-0.41244 10e-4,-0.003 0.11356,-0.44406 0.0387,-0.45763 -0.0387,-0.45762 -0.11356,-0.44252 m -17.13238,-2.00958 -0.18533,-0.41695 -0.25137,-0.37632 -0.30884,-0.32362 -0.35916,-0.26345 -0.39793,-0.19422 -0.42234,-0.11891 -0.43671,-0.0403 -0.4367,0.0403 -0.42377,0.11891 -0.0819,0.0403 -0.31456,0.15408 -0.35916,0.26345 -0.31027,0.32362 -0.25143,0.37632 -0.18527,0.41694 -0.11356,0.44253 -0.0376,0.45762 0.0376,0.45762 0.11356,0.44406 0.18527,0.41546 0.0875,0.13093 0.16387,0.24534 0.31028,0.32515 0.35916,0.26345 0.31461,0.15408 0.0819,0.0403 0.42377,0.11891 0.4367,0.0392 0.43671,-0.0392 0.42234,-0.11891 0.39793,-0.19422 0.35916,-0.26345 0.30884,-0.32516 0.25137,-0.37632 0.18533,-0.41546 0.11356,-0.44406 0.0387,-0.45762 -0.0143,-0.16859 -0.0244,-0.28904 -0.11356,-0.44252 m -62.13399,14.7218 -0.0116,-0.0275 -0.21689,-0.51895 -0.31175,-0.49979 -0.38496,-0.43802 -0.44968,-0.36732 -0.50136,-0.28304 -0.53872,-0.19423 -0.56169,-0.0978 h -0.56888 l -0.56169,0.0978 -0.53871,0.19423 -0.50138,0.28304 -0.44961,0.36732 -0.29879,0.33998 -0.0862,0.0981 -0.31175,0.49979 -0.22839,0.54641 -0.13935,0.57955 -0.0477,0.59459 0.0201,0.24984 0.0275,0.34475 0.13935,0.57804 0.22838,0.54642 0.31176,0.49978 0.0862,0.0981 0.29878,0.33999 0.44962,0.36731 0.50137,0.28305 0.53871,0.19417 0.5617,0.0978 h 0.56888 l 0.56169,-0.0978 0.53871,-0.19417 0.50136,-0.28305 0.44963,-0.36731 0.38495,-0.43803 0.31175,-0.49978 0.2169,-0.51896 0.0116,-0.0275 0.13935,-0.57802 0.0477,-0.5946 -0.0477,-0.59459 -0.13935,-0.57954 m 73.57474,40.39163 -0.18528,-0.41546 -0.25137,-0.37632 -0.31027,-0.32516 -0.35916,-0.26345 -0.39645,-0.19422 -0.42377,-0.11891 -0.4367,-0.0392 -0.4367,0.0392 -0.17664,0.0498 -0.24566,0.0692 -0.39793,0.19422 -0.35915,0.26345 -0.31028,0.32516 -0.24999,0.37632 -0.18533,0.41546 -0.11351,0.44406 -0.0387,0.45762 0.0387,0.45609 0.11351,0.44406 0.18533,0.417 0.24999,0.37484 0.31028,0.32515 0.35915,0.26345 0.39793,0.19423 0.24566,0.0692 0.17664,0.0498 0.4367,0.0403 0.4367,-0.0403 0.42377,-0.11891 0.39645,-0.19423 0.35916,-0.26345 0.31027,-0.32515 0.25137,-0.37484 0.18528,-0.417 0.1135,-0.44406 0.0206,-0.24835 0.0169,-0.20773 -0.0376,-0.45763 -0.1135,-0.44406 m -8.71417,34.76785 -0.14777,0.25285 -0.11086,0.18967 -0.18103,0.48321 -0.10053,0.50879 -0.0143,0.51932 0.0704,0.51329 0.15371,0.49374 0.1839,0.36154 0.007,0.0133 0.0423,0.0828 0.30312,0.40948 0.36774,0.3492 0.41805,0.27849 0.45683,0.19868 0.4841,0.11292 0.49417,0.0238 0.49131,-0.0647 0.47404,-0.15207 0.44105,-0.23633 0.3965,-0.31159 0.34046,-0.37781 0.19613,-0.31313 0.0754,-0.12045 0.19682,-0.47568 0.11636,-0.50428 0.0233,-0.20625 -10e-4,-0.51933 -0.0876,-0.51026 -0.1695,-0.48771 -0.1421,-0.2589 -0.10492,-0.19115 -0.31748,-0.39888 -0.37781,-0.3357 -0.42811,-0.26191 -0.46404,-0.18215 -0.48696,-0.0963 -0.49417,-0.007 -0.48987,0.0828 -0.46832,0.17012 -0.43241,0.25138 -0.38639,0.32515 -0.3261,0.38988 m -41.73488,-49.30599 0.0477,-0.5946 -0.0477,-0.59459 -0.13935,-0.57954 -0.22987,-0.54642 -0.31013,-0.49956 -0.38639,-0.43803 -0.44962,-0.36731 -0.49994,-0.283 -0.53872,-0.19422 -0.56168,-0.0979 h -0.57032 l -0.56169,0.0979 -0.53871,0.19422 -0.49994,0.283 -0.19825,0.16191 -0.25138,0.2054 -0.38495,0.43803 -0.31175,0.49978 -0.22839,0.54642 -0.14078,0.57954 -0.0477,0.59459 0.0477,0.5946 0.0568,0.23331 0.084,0.34475 0.22839,0.54642 0.31175,0.49978 0.38496,0.43803 0.25142,0.20534 0.19825,0.16192 0.49995,0.28299 0.5387,0.19423 0.5617,0.0979 h 0.57031 l 0.56169,-0.0979 0.53872,-0.19423 0.49993,-0.28299 0.44963,-0.36732 0.38639,-0.43802 0.31026,-0.49978 0.22987,-0.54643 0.083,-0.34475 0.0563,-0.23332 m -23.12572,22.31603 -0.0116,-0.0275 -0.2169,-0.51891 -0.31176,-0.49978 -0.38495,-0.43803 -0.44962,-0.36731 -0.50137,-0.283 -0.53871,-0.19422 -0.5617,-0.0979 h -0.56887 l -0.5617,0.0979 -0.53871,0.19422 -0.50137,0.283 -0.44963,0.36731 -0.29877,0.33999 -0.0862,0.0981 -0.31176,0.49978 -0.22839,0.54642 -0.13935,0.57955 -0.0477,0.59459 0.0477,0.59458 0.13935,0.57805 0.0975,0.23331 0.13093,0.31314 0.31176,0.49978 0.38495,0.43802 0.44962,0.36732 0.50138,0.28304 0.5387,0.19423 0.5617,0.0979 h 0.56887 l 0.5617,-0.0979 0.53871,-0.19423 0.50137,-0.28304 0.44963,-0.36732 0.38495,-0.43802 0.31175,-0.49978 0.13088,-0.31314 0.086,-0.20582 0.0116,-0.0276 0.13935,-0.57802 0.0477,-0.5946 -0.0477,-0.5946 -0.13935,-0.57953 m -0.11637,23.15899 -1.03289,-0.25439 -1.05156,-0.15355 -1.06018,-0.0513 -1.06017,0.0513 -1.05157,0.15355 -1.03288,0.25439 -1.00703,0.35376 -0.97112,0.44857 -0.92801,0.54189 -0.87486,0.62772 -0.8174,0.7105 -0.74989,0.78727 -0.0259,0.0323 -0.65219,0.82239 -0.60049,0.91824 -0.51715,0.97242 -0.42812,1.01758 -0.3376,1.05371 -0.2428,1.08381 -0.1465,1.10037 -0.0487,1.11242 0.0487,1.1109 0.1465,1.10189 0.2428,1.0823 0.3376,1.05371 0.42812,1.01758 0.51715,0.97242 0.60049,0.91824 0.65219,0.8224 0.0259,0.0324 0.74989,0.78726 0.8174,0.71051 0.87486,0.62771 0.92801,0.5419 0.47251,0.21832 0.49862,0.2303 1.00702,0.35369 1.03289,0.2544 1.05157,0.15355 1.06017,0.0525 1.06017,-0.0525 1.05157,-0.15355 1.03289,-0.2544 1.00702,-0.35369 0.49861,-0.2303 0.47251,-0.21832 0.92801,-0.5419 0.87486,-0.62771 0.81741,-0.71051 0.74988,-0.78726 0.67805,-0.85501 0.60049,-0.91824 0.51715,-0.97241 0.42812,-1.01758 0.3376,-1.05371 0.2428,-1.08231 0.1465,-1.10188 0.0487,-1.11091 -0.0487,-1.11241 -0.0291,-0.22128 -0.11706,-0.87909 -0.24279,-1.08382 -0.3376,-1.0537 -0.42813,-1.01759 -0.51715,-0.97242 -0.60049,-0.91823 -0.67805,-0.85501 -0.74988,-0.78727 -0.8174,-0.7105 -0.87487,-0.62771 -0.92801,-0.54191 -0.97112,-0.44856 -0.90215,-0.3169 -0.10487,-0.0371 m -82.14937,-135.950672 -0.12351,0.122562 -0.41664,0.413343 -0.27722,0.427484 -0.20402,0.471181 -0.12351,0.501265 -0.0387,0.516307 0.0445,0.514824 0.12929,0.499782 0.20832,0.469645 0.28304,0.424518 0.027,0.0286 0.3206,0.338662 0.0477,0.03548 0.35482,0.265569 0.44533,0.222772 0.47552,0.139988 0.49131,0.05243 0.49274,-0.03601 0.47981,-0.12341 0.45106,-0.209266 0.41234,-0.286014 0.35767,-0.356775 0.0312,-0.04343 0.26473,-0.370281 0.22267,-0.462124 0.14364,-0.495227 0.0618,-0.513288 -0.0244,-0.516308 -0.10779,-0.505767 -0.087,-0.219753 -0.10265,-0.258895 -0.26292,-0.436542 -0.33189,-0.383841 -0.39077,-0.317633 -0.43527,-0.243853 -0.46975,-0.161068 -0.48845,-0.07526 -0.49274,0.01324 -0.4841,0.102382 -0.46112,0.186651 -0.4224,0.267899 m 18.33479,49.900592 -0.18533,-0.41699 -0.25137,-0.37632 -0.31027,-0.32362 -0.0589,-0.0434 -0.30027,-0.22023 -0.39644,-0.19423 -0.42378,-0.1189 -0.4367,-0.0403 -0.43669,0.0403 -0.42235,0.1189 -0.39788,0.19423 -0.35916,0.26345 -0.30884,0.32362 -0.25138,0.37632 -0.18532,0.41694 -0.11356,0.44253 -0.0244,0.28903 -0.0143,0.16859 0.0387,0.45762 0.11356,0.44406 0.18532,0.41546 0.25138,0.37632 0.30884,0.32516 0.35916,0.26345 0.39788,0.19422 0.42235,0.11891 0.43669,0.0392 0.4367,-0.0392 0.42378,-0.11891 0.39644,-0.19422 0.30027,-0.22023 0.0589,-0.0434 0.31027,-0.32516 0.25137,-0.37632 0.18533,-0.41546 0.1135,-0.44406 0.0376,-0.45762 -0.0376,-0.45762 -0.1135,-0.44253 m -17.13239,2.00957 -0.18532,-0.41699 -0.25138,-0.37632 -0.31027,-0.32362 -0.35916,-0.26345 -0.2198,-0.10768 -0.17664,-0.0866 -0.42383,-0.11891 -0.43671,-0.0403 -0.43527,0.0403 -0.42377,0.11891 -0.39788,0.19422 -0.35768,0.26345 -0.31026,0.32362 -0.25144,0.37632 -0.18532,0.41695 -0.1135,0.44252 -0.0387,0.45762 0.0387,0.45763 0.1135,0.44406 0.001,0.003 0.18401,0.41244 0.25142,0.37632 0.31028,0.32516 0.35767,0.26345 0.39787,0.19422 0.42378,0.11891 0.43528,0.0392 0.43669,-0.0392 0.42378,-0.11891 0.17664,-0.0866 0.21981,-0.10763 0.35915,-0.26345 0.31028,-0.32515 0.25137,-0.37632 0.18533,-0.41546 0.11355,-0.44406 0.0387,-0.45763 -0.0387,-0.45762 -0.11355,-0.44252 m 57.537,40.18991 0.31176,-0.49972 0.22839,-0.54643 0.14078,-0.57804 0.0477,-0.59459 -0.0477,-0.59459 -0.14078,-0.57954 -0.22839,-0.54642 -0.31176,-0.49978 -0.0212,-0.0244 -0.36345,-0.41351 -0.44962,-0.36731 -0.49994,-0.283 -0.53871,-0.19422 -0.5617,-0.0979 h -0.57031 l -0.56169,0.0979 -0.53872,0.19422 -0.49993,0.283 -0.44963,0.36731 -0.38638,0.43803 -0.31027,0.49973 -0.15371,0.36546 -0.0762,0.18098 -0.13936,0.57954 -0.0477,0.5946 0.0477,0.59459 0.0563,0.23336 0.083,0.3447 0.22981,0.54643 0.31027,0.49978 0.38639,0.43803 0.44962,0.36731 0.49994,0.283 0.53872,0.19422 0.56169,0.0979 h 0.57033 l 0.56168,-0.0979 0.5387,-0.19422 0.49994,-0.283 0.44963,-0.36731 0.36345,-0.41351 0.0212,-0.0244 m -34.71441,10.89082 -0.18533,-0.41546 -0.25142,-0.37632 -0.17522,-0.18448 -0.13362,-0.14062 -0.35916,-0.26345 -0.39794,-0.19422 -0.42234,-0.11891 -0.4367,-0.0392 -0.4367,0.0392 -0.42377,0.11891 -0.3965,0.19422 -0.35916,0.26345 -0.31028,0.32516 -0.25137,0.37632 -0.18532,0.41546 -0.0133,0.0498 -0.10074,0.39438 -0.0376,0.45763 0.0376,0.45762 0.1135,0.44252 0.18533,0.417 0.25142,0.37632 0.31028,0.32362 0.35915,0.26345 0.39645,0.19422 0.42378,0.11891 0.43669,0.0403 0.43671,-0.0403 0.42235,-0.11891 0.39793,-0.19422 0.35916,-0.26345 0.13362,-0.14004 0.17521,-0.18369 0.25144,-0.37632 0.18532,-0.41699 0.1135,-0.44253 0.0387,-0.45762 -0.0387,-0.45762 -0.1135,-0.44406 m -17.13095,2.02312 -0.18533,-0.41546 -0.24994,-0.37632 -0.31027,-0.32516 -0.35916,-0.26345 -0.0286,-0.0138 -0.36917,-0.18019 -0.4224,-0.11891 -0.4367,-0.0392 -0.4367,0.0392 -0.42377,0.11891 -0.3965,0.19422 -0.35916,0.26345 -0.31028,0.32516 -0.25137,0.37632 -0.18532,0.41546 -0.11351,0.44406 -0.0376,0.45762 0.0169,0.20773 0.0206,0.24836 0.1135,0.44406 0.18532,0.417 0.25138,0.37484 0.31027,0.32515 0.35916,0.26345 0.3965,0.19422 0.42377,0.11891 0.43671,0.0408 0.4367,-0.0408 0.42234,-0.11891 0.36917,-0.18018 0.0286,-0.0138 0.35916,-0.26345 0.31028,-0.32515 0.24994,-0.37484 0.18533,-0.417 0.1135,-0.44406 0.0387,-0.45608 -0.0387,-0.45763 -0.1135,-0.44406 m -0.68238,34.82956 -0.10492,0.19115 -0.14216,0.25889 -0.16949,0.48772 -0.0344,0.20078 -0.0531,0.30953 -0.001,0.51933 0.0233,0.20625 0.0318,0.13697 0.0847,0.36731 0.19682,0.47569 0.0754,0.12044 0.19614,0.31313 0.34051,0.37786 0.3965,0.31159 0.44104,0.23633 0.47409,0.15206 0.49131,0.0647 0.49417,-0.0239 0.4841,-0.11293 0.45683,-0.19867 0.41806,-0.27849 0.36774,-0.3492 0.30312,-0.40943 0.0423,-0.0828 0.19062,-0.37484 0.15371,-0.49374 0.0704,-0.5133 -0.0143,-0.51932 -0.10053,-0.50879 -0.18104,-0.4832 -0.11086,-0.18967 -0.14777,-0.25285 -0.3261,-0.38988 -0.38639,-0.32516 -0.43241,-0.25138 -0.46832,-0.17011 -0.48987,-0.0828 -0.49418,0.007 -0.48701,0.0964 -0.46403,0.18215 -0.42807,0.26191 -0.3778,0.3357 -0.31742,0.39893 m 118.7657,-79.96295 v -7.63185 h -7.41694 -2.63896 v 7.63185 5.16317 h 2.63896 7.41694 v -5.16317 m 13.73349,43.1102 -0.18532,-0.41547 -0.25137,-0.37631 -0.31028,-0.32516 -0.35916,-0.26345 -0.39644,-0.19422 -0.42378,-0.11891 -0.4367,-0.0392 -0.4367,0.0392 -0.42239,0.11891 -0.39794,0.19422 -0.35916,0.26345 -0.30884,0.32516 -0.25137,0.37631 -0.18533,0.41547 -0.0127,0.0498 -0.10074,0.39438 -0.0387,0.45763 0.0387,0.45762 0.11356,0.44252 0.18532,0.417 0.25138,0.37632 0.30884,0.32362 0.35916,0.26345 0.12214,0.0596 0.27579,0.13458 0.42235,0.11891 0.43669,0.0403 0.43671,-0.0403 0.42378,-0.11891 0.39649,-0.19422 0.35916,-0.26345 0.31027,-0.32362 0.25138,-0.37632 0.18532,-0.417 0.11351,-0.44252 0.0376,-0.45763 -0.0376,-0.45762 -0.1008,-0.39438 -0.0127,-0.0498 m -105.676,-50.74205 v 12.79503 h 10.05591 v -12.79505 z"
     fill="none"
     stroke="#ff0000"
     stroke-width="0.001mm"
     id="path811"
     style="stroke-width:0.152935;stroke-dasharray:none" /><g
     id="g796"><path
       style="opacity:0.406593;fill:#800000;stroke-width:0.189529"
       id="path349"
       sodipodi:type="arc"
       sodipodi:cx="19.299871"
       sodipodi:cy="2.5008402"
       sodipodi:rx="35"
       sodipodi:ry="35"
       sodipodi:start="0.92972574"
       sodipodi:end="0.92907454"
       sodipodi:arc-type="slice"
       d="m 40.231755,30.551798 a 35,35 0 0 1 -48.9794337,-7.114508 35,35 0 0 1 7.1065344,-48.980591 35,35 0 0 1 48.9817473,7.09856 35,35 0 0 1 -7.090586,48.982903 L 19.299871,2.5008402 Z" /><path
       id="path488"
       style="opacity:0.406593;fill:#000000;stroke-width:0.131059"
       inkscape:transform-center-y="-34.891833"
       d="m 19.406189,-34.915929 a 2.5,2.5 0 0 0 -1.575098,0.495577 2.5,2.5 0 0 0 -0.507462,3.499012 2.5,2.5 0 0 0 3.498494,0.507979 l -1.494999,-2.003495 1.496033,2.002461 a 2.5,2.5 0 0 0 0.506429,-3.498494 2.5,2.5 0 0 0 -1.923397,-1.00304 z m -30.403829,17.401005 a 2.5,2.5 0 0 0 -2.374532,1.514637 2.5,2.5 0 0 0 1.314132,3.28197 2.5,2.5 0 0 0 3.2819699,-1.313098 2.5,2.5 0 0 0 -1.3125819,-3.282487 l -0.984952,2.297534 0.983402,-2.298051 a 2.5,2.5 0 0 0 -0.907438,-0.200505 z m 60.701204,0.04754 a 2.5,2.5 0 0 0 -2.375565,1.512569 2.5,2.5 0 0 0 1.311031,3.28352 l 0.986503,-2.297534 -0.984953,2.298051 a 2.5,2.5 0 0 0 3.282487,-1.312581 2.5,2.5 0 0 0 -1.312064,-3.282487 2.5,2.5 0 0 0 -0.907439,-0.201538 z m -60.498116,34.933268 a 2.5,2.5 0 0 0 -2.374015,1.514636 2.5,2.5 0 0 0 1.313615,3.282487 2.5,2.5 0 0 0 3.2819702,-1.313615 2.5,2.5 0 0 0 -1.3125814,-3.282487 l -0.9849528,2.298051 0.9834026,-2.298568 a 2.5,2.5 0 0 0 -0.9074386,-0.200504 z m 60.505351,0.0036 a 2.5,2.5 0 0 0 -1.575098,0.495577 l 1.49655,2.002979 -1.497583,-2.001945 a 2.5,2.5 0 0 0 -0.504879,3.499011 2.5,2.5 0 0 0 3.499011,0.505396 2.5,2.5 0 0 0 0.505913,-3.499012 2.5,2.5 0 0 0 -1.923914,-1.002006 z M 19.424792,34.867926 a 2.5,2.5 0 0 0 -1.57458,0.496093 l 1.496032,2.002462 -1.497583,-2.001428 a 2.5,2.5 0 0 0 -0.504362,3.499011 2.5,2.5 0 0 0 3.499012,0.504879 2.5,2.5 0 0 0 0.505395,-3.499011 2.5,2.5 0 0 0 -1.923914,-1.002006 z" /></g><metadata
     id="metadata798"><rdf:RDF><cc:Work
         rdf:about=""><dc:title>svgOutput</dc:title></cc:Work></rdf:RDF></metadata></svg>
